<svg xmlns="http://www.w3.org/2000/svg" xmlns:xlink="http://www.w3.org/1999/xlink" width="337" zoomAndPan="magnify" viewBox="0 0 252.75 45.749998" height="61" preserveAspectRatio="xMidYMid meet" version="1.0"><defs><clipPath id="08f25375f6"><path d="M 51 0.597656 L 103.128906 0.597656 L 103.128906 5 L 51 5 Z M 51 0.597656 " clip-rule="nonzero"/></clipPath><clipPath id="bc49dcfa54"><path d="M 0.5625 41 L 52 41 L 52 44.996094 L 0.5625 44.996094 Z M 0.5625 41 " clip-rule="nonzero"/></clipPath><clipPath id="1c035270d2"><path d="M 141.796875 41 L 250 41 L 250 45 L 141.796875 45 Z M 141.796875 41 " clip-rule="nonzero"/></clipPath><clipPath id="10722aa794"><path d="M 141.796875 0 L 166 0 L 166 32 L 141.796875 32 Z M 141.796875 0 " clip-rule="nonzero"/></clipPath><clipPath id="b66c026fd5"><path d="M 121 0 L 123 0 L 123 44.398438 L 121 44.398438 Z M 121 0 " clip-rule="nonzero"/></clipPath></defs><g clip-path="url(#08f25375f6)"><path fill="#000000" d="M 51.847656 2.304688 L 51.847656 4.007812 L 103.125 4.007812 L 103.125 0.597656 L 51.847656 0.597656 Z M 51.847656 2.304688 " fill-opacity="1" fill-rule="nonzero"/></g><path fill="#000000" d="M 8.175781 11.824219 C 7.941406 11.964844 7.921875 12.042969 7.917969 12.957031 C 7.917969 13.820312 7.921875 13.847656 8.0625 13.980469 C 8.195312 14.121094 8.222656 14.125 9.070312 14.125 C 9.902344 14.125 9.941406 14.121094 10.097656 13.988281 L 10.261719 13.847656 L 10.261719 12.945312 C 10.261719 11.742188 10.308594 11.789062 9.144531 11.765625 C 8.566406 11.761719 8.257812 11.777344 8.175781 11.824219 Z M 8.175781 11.824219 " fill-opacity="1" fill-rule="nonzero"/><path fill="#000000" d="M 12.953125 11.921875 L 12.777344 12.089844 L 12.777344 12.96875 C 12.777344 13.820312 12.785156 13.847656 12.921875 13.980469 C 13.054688 14.121094 13.085938 14.125 13.949219 14.125 C 14.550781 14.121094 14.863281 14.101562 14.925781 14.050781 C 15.117188 13.90625 15.152344 13.734375 15.152344 12.917969 C 15.152344 12.148438 15.144531 12.101562 15.011719 11.945312 L 14.875 11.785156 L 14 11.765625 L 13.125 11.75 Z M 12.953125 11.921875 " fill-opacity="1" fill-rule="nonzero"/><path fill="#000000" d="M 39.066406 15.84375 C 38.992188 15.910156 38.402344 17.570312 37.226562 21.046875 C 36.269531 23.855469 35.472656 26.148438 35.4375 26.148438 C 35.410156 26.148438 34.796875 23.902344 34.082031 21.148438 C 33.238281 17.894531 32.753906 16.121094 32.6875 16.0625 C 32.613281 15.992188 32.410156 15.976562 31.691406 15.976562 C 30.898438 15.976562 30.785156 15.988281 30.703125 16.078125 C 30.644531 16.136719 30.605469 16.234375 30.605469 16.292969 C 30.605469 16.390625 34.25 29.617188 34.574219 30.699219 C 34.667969 31.007812 34.753906 31.195312 34.828125 31.238281 C 34.984375 31.316406 35.476562 31.308594 35.597656 31.214844 C 35.664062 31.164062 36.382812 29.15625 37.550781 25.746094 C 38.570312 22.78125 39.414062 20.335938 39.429688 20.324219 C 39.449219 20.304688 39.484375 20.316406 39.511719 20.347656 C 39.535156 20.375 40.398438 22.804688 41.421875 25.746094 C 42.734375 29.527344 43.320312 31.121094 43.402344 31.195312 C 43.5625 31.328125 44.03125 31.328125 44.199219 31.191406 C 44.304688 31.109375 44.714844 29.695312 46.347656 23.792969 C 47.464844 19.78125 48.375 16.402344 48.375 16.292969 C 48.375 16.15625 48.339844 16.074219 48.261719 16.035156 C 48.199219 16.003906 47.769531 15.976562 47.277344 15.976562 C 46.492188 15.976562 46.398438 15.988281 46.308594 16.085938 C 46.238281 16.160156 45.78125 17.859375 44.933594 21.179688 C 44.199219 24.058594 43.640625 26.144531 43.605469 26.132812 C 43.5625 26.121094 40.90625 18.523438 40.066406 16.023438 C 39.992188 15.808594 39.863281 15.746094 39.519531 15.746094 C 39.28125 15.746094 39.148438 15.773438 39.066406 15.84375 Z M 39.066406 15.84375 " fill-opacity="1" fill-rule="nonzero"/><path fill="#000000" d="M 10.382812 15.917969 C 9.324219 16.085938 7.984375 16.628906 7.136719 17.230469 C 5.796875 18.183594 4.820312 19.511719 4.300781 21.082031 C 3.964844 22.09375 3.90625 22.480469 3.90625 23.636719 C 3.90625 24.769531 3.992188 25.335938 4.304688 26.25 C 5.085938 28.519531 6.910156 30.3125 9.171875 31.027344 C 10.335938 31.394531 11.761719 31.484375 12.894531 31.265625 C 16.089844 30.660156 18.503906 28.191406 19.058594 24.972656 C 19.175781 24.289062 19.175781 22.96875 19.050781 22.269531 C 18.601562 19.652344 16.816406 17.410156 14.386719 16.414062 C 13.480469 16.039062 12.824219 15.910156 11.707031 15.890625 C 11.167969 15.878906 10.574219 15.890625 10.382812 15.917969 Z M 12.835938 18.171875 C 15.488281 18.859375 17.308594 21.496094 17.015625 24.207031 C 16.742188 26.714844 14.914062 28.695312 12.449219 29.160156 C 11.90625 29.261719 10.601562 29.195312 10.058594 29.046875 C 8.566406 28.617188 7.28125 27.539062 6.578125 26.121094 C 6.132812 25.214844 6.046875 24.796875 6.042969 23.664062 C 6.035156 22.542969 6.132812 22.074219 6.554688 21.195312 C 7.332031 19.601562 8.738281 18.484375 10.464844 18.109375 C 11.125 17.964844 12.140625 17.988281 12.835938 18.171875 Z M 12.835938 18.171875 " fill-opacity="1" fill-rule="nonzero"/><path fill="#000000" d="M 66.488281 17.578125 C 66.058594 18.492188 65.707031 19.257812 65.695312 19.28125 C 65.679688 19.3125 65.851562 19.328125 66.070312 19.328125 L 66.476562 19.328125 L 66.664062 18.867188 L 68.035156 18.867188 L 68.214844 19.328125 L 68.59375 19.328125 C 68.867188 19.328125 68.976562 19.304688 68.972656 19.253906 C 68.960938 19.074219 67.4375 15.945312 67.351562 15.929688 C 67.28125 15.917969 67.066406 16.335938 66.488281 17.578125 Z M 67.53125 17.777344 L 67.703125 18.144531 L 67.378906 18.160156 C 67.199219 18.171875 67.042969 18.167969 67.027344 18.148438 C 67 18.121094 67.300781 17.421875 67.339844 17.421875 C 67.351562 17.421875 67.4375 17.582031 67.53125 17.777344 Z M 67.53125 17.777344 " fill-opacity="1" fill-rule="nonzero"/><path fill="#000000" d="M 73.144531 16.050781 C 72.859375 16.199219 72.625 16.570312 72.625 16.855469 C 72.625 17.265625 72.960938 17.667969 73.503906 17.90625 C 73.6875 17.988281 73.890625 18.109375 73.953125 18.171875 C 74.117188 18.335938 74.105469 18.554688 73.925781 18.667969 C 73.796875 18.757812 73.742188 18.757812 73.539062 18.699219 C 73.40625 18.65625 73.238281 18.582031 73.160156 18.535156 C 72.984375 18.421875 72.882812 18.46875 72.746094 18.738281 L 72.628906 18.964844 L 72.757812 19.085938 C 73.082031 19.390625 73.890625 19.484375 74.34375 19.265625 C 74.644531 19.121094 74.800781 18.929688 74.886719 18.617188 C 75.027344 18.097656 74.730469 17.675781 73.953125 17.289062 C 73.480469 17.050781 73.464844 17.035156 73.464844 16.84375 C 73.464844 16.535156 73.660156 16.488281 74.117188 16.699219 C 74.457031 16.847656 74.480469 16.855469 74.585938 16.761719 C 74.648438 16.703125 74.730469 16.582031 74.769531 16.484375 C 74.835938 16.324219 74.828125 16.300781 74.703125 16.199219 C 74.308594 15.902344 73.566406 15.824219 73.144531 16.050781 Z M 73.144531 16.050781 " fill-opacity="1" fill-rule="nonzero"/><path fill="#000000" d="M 83.960938 16.046875 C 83.8125 16.328125 82.464844 19.234375 82.464844 19.28125 C 82.464844 19.304688 82.636719 19.328125 82.84375 19.328125 L 83.226562 19.328125 L 83.3125 19.097656 L 83.40625 18.867188 L 84.777344 18.867188 L 84.964844 19.328125 L 85.761719 19.328125 L 85.679688 19.136719 C 85.265625 18.15625 84.171875 15.917969 84.105469 15.917969 C 84.066406 15.917969 83.996094 15.976562 83.960938 16.046875 Z M 84.414062 18.148438 C 84.402344 18.167969 84.238281 18.171875 84.058594 18.160156 L 83.734375 18.144531 L 83.914062 17.769531 L 84.101562 17.390625 L 84.269531 17.757812 C 84.367188 17.957031 84.429688 18.132812 84.414062 18.148438 Z M 84.414062 18.148438 " fill-opacity="1" fill-rule="nonzero"/><path fill="#000000" d="M 86.148438 15.957031 C 86.097656 16.003906 86.097656 18.109375 86.148438 18.800781 L 86.183594 19.335938 L 86.539062 19.316406 L 86.890625 19.300781 L 86.917969 18.386719 L 86.949219 17.480469 L 87.902344 18.433594 C 88.429688 18.957031 88.90625 19.386719 88.957031 19.386719 C 89.054688 19.386719 89.0625 19.269531 89.0625 17.679688 L 89.0625 15.976562 L 88.308594 15.976562 L 88.308594 17.777344 L 87.332031 16.847656 C 86.425781 15.988281 86.253906 15.855469 86.148438 15.957031 Z M 86.148438 15.957031 " fill-opacity="1" fill-rule="nonzero"/><path fill="#000000" d="M 25.355469 16.101562 C 25.210938 16.265625 18.683594 30.785156 18.683594 30.949219 C 18.683594 31.011719 18.734375 31.117188 18.796875 31.179688 C 18.902344 31.285156 18.988281 31.296875 19.746094 31.296875 C 20.535156 31.296875 20.597656 31.289062 20.738281 31.164062 C 20.835938 31.082031 21.105469 30.527344 21.546875 29.53125 L 22.207031 28.027344 L 25.695312 28.011719 L 29.1875 28 L 29.882812 29.566406 C 30.453125 30.855469 30.605469 31.144531 30.730469 31.214844 C 30.84375 31.273438 31.121094 31.296875 31.699219 31.296875 L 32.507812 31.296875 L 32.628906 31.140625 C 32.707031 31.039062 32.742188 30.9375 32.722656 30.855469 C 32.636719 30.527344 26.183594 16.167969 26.078125 16.074219 C 25.90625 15.921875 25.503906 15.941406 25.355469 16.101562 Z M 27.027344 23.105469 C 27.714844 24.664062 28.300781 25.992188 28.324219 26.046875 C 28.359375 26.144531 28.207031 26.148438 25.714844 26.148438 C 23.21875 26.148438 23.070312 26.144531 23.097656 26.046875 C 23.117188 25.992188 23.664062 24.722656 24.324219 23.230469 C 24.984375 21.734375 25.546875 20.457031 25.574219 20.378906 C 25.605469 20.3125 25.65625 20.253906 25.695312 20.253906 C 25.738281 20.253906 26.320312 21.496094 27.027344 23.105469 Z M 27.027344 23.105469 " fill-opacity="1" fill-rule="nonzero"/><path fill="#000000" d="M 69.265625 17.0625 C 69.265625 18.570312 69.386719 18.917969 70.03125 19.234375 C 70.785156 19.613281 71.75 19.230469 71.980469 18.46875 C 72.015625 18.335938 72.046875 17.796875 72.046875 17.109375 L 72.046875 15.976562 L 71.292969 15.976562 L 71.292969 17.015625 C 71.292969 18.183594 71.246094 18.390625 70.949219 18.542969 C 70.738281 18.65625 70.582031 18.65625 70.378906 18.554688 C 70.105469 18.414062 70.078125 18.28125 70.058594 17.101562 L 70.046875 16.003906 L 69.660156 15.988281 L 69.265625 15.96875 Z M 69.265625 17.0625 " fill-opacity="1" fill-rule="nonzero"/><path fill="#000000" d="M 75.183594 16.304688 L 75.199219 16.640625 L 75.59375 16.65625 L 75.980469 16.675781 L 75.980469 19.328125 L 76.734375 19.328125 L 76.734375 16.675781 L 77.125 16.65625 L 77.515625 16.640625 L 77.515625 16.003906 L 76.339844 15.988281 L 75.164062 15.976562 Z M 75.183594 16.304688 " fill-opacity="1" fill-rule="nonzero"/><path fill="#000000" d="M 78.007812 17.652344 L 78.007812 19.328125 L 78.753906 19.328125 L 78.769531 18.675781 L 78.789062 18.027344 L 78.945312 18.011719 C 79.09375 17.992188 79.125 18.035156 79.4375 18.65625 L 79.773438 19.328125 L 80.160156 19.328125 C 80.375 19.328125 80.558594 19.3125 80.570312 19.28125 C 80.585938 19.257812 80.441406 18.96875 80.257812 18.636719 C 80.074219 18.300781 79.921875 18.015625 79.917969 18 C 79.917969 17.980469 80.007812 17.917969 80.125 17.855469 C 80.773438 17.507812 80.765625 16.496094 80.113281 16.113281 C 79.894531 15.980469 79.824219 15.976562 78.945312 15.976562 L 78.007812 15.976562 Z M 79.738281 16.75 C 79.898438 16.894531 79.894531 17.15625 79.730469 17.304688 C 79.621094 17.410156 79.539062 17.421875 79.191406 17.410156 L 78.789062 17.390625 L 78.769531 17.078125 C 78.742188 16.605469 78.753906 16.59375 79.214844 16.625 C 79.503906 16.632812 79.648438 16.675781 79.738281 16.75 Z M 79.738281 16.75 " fill-opacity="1" fill-rule="nonzero"/><path fill="#000000" d="M 81.304688 17.652344 L 81.304688 19.328125 L 82.058594 19.328125 L 82.058594 15.976562 L 81.304688 15.976562 Z M 81.304688 17.652344 " fill-opacity="1" fill-rule="nonzero"/><path fill="#000000" d="M 63.289062 22.289062 C 63.179688 22.519531 62.824219 23.277344 62.5 23.976562 C 62.140625 24.746094 61.929688 25.261719 61.960938 25.292969 C 61.992188 25.324219 62.152344 25.339844 62.328125 25.328125 C 62.628906 25.3125 62.644531 25.300781 62.773438 25.0625 L 62.90625 24.820312 L 64.230469 24.820312 L 64.300781 24.976562 C 64.433594 25.28125 64.519531 25.339844 64.84375 25.339844 C 65.011719 25.339844 65.164062 25.316406 65.179688 25.289062 C 65.234375 25.207031 63.671875 21.902344 63.566406 21.882812 C 63.507812 21.871094 63.421875 21.992188 63.289062 22.289062 Z M 63.882812 24.082031 C 63.882812 24.167969 63.832031 24.183594 63.570312 24.183594 C 63.398438 24.183594 63.242188 24.167969 63.230469 24.136719 C 63.21875 24.113281 63.28125 23.929688 63.378906 23.726562 L 63.554688 23.359375 L 63.714844 23.671875 C 63.804688 23.84375 63.878906 24.027344 63.882812 24.082031 Z M 63.882812 24.082031 " fill-opacity="1" fill-rule="nonzero"/><path fill="#000000" d="M 66.507812 21.980469 C 65.332031 22.386719 64.945312 23.835938 65.769531 24.761719 C 66.152344 25.179688 66.40625 25.300781 67.007812 25.328125 C 67.476562 25.351562 67.519531 25.339844 67.878906 25.15625 C 68.085938 25.050781 68.261719 24.925781 68.265625 24.878906 C 68.269531 24.832031 68.191406 24.6875 68.082031 24.566406 L 67.878906 24.335938 L 67.617188 24.460938 C 67.085938 24.714844 66.527344 24.554688 66.273438 24.074219 C 66.199219 23.9375 66.140625 23.726562 66.140625 23.613281 C 66.140625 23.324219 66.363281 22.914062 66.597656 22.757812 C 66.851562 22.582031 67.300781 22.578125 67.605469 22.738281 C 67.722656 22.804688 67.835938 22.855469 67.859375 22.855469 C 67.890625 22.855469 67.992188 22.746094 68.105469 22.617188 L 68.292969 22.386719 L 68.160156 22.242188 C 67.980469 22.050781 67.472656 21.871094 67.109375 21.871094 C 66.941406 21.878906 66.675781 21.925781 66.507812 21.980469 Z M 66.507812 21.980469 " fill-opacity="1" fill-rule="nonzero"/><path fill="#000000" d="M 69.886719 22.058594 C 69.839844 22.160156 69.488281 22.917969 69.097656 23.746094 C 68.71875 24.566406 68.417969 25.265625 68.433594 25.289062 C 68.46875 25.351562 69.035156 25.359375 69.128906 25.292969 C 69.167969 25.269531 69.238281 25.15625 69.285156 25.035156 L 69.375 24.820312 L 70.707031 24.820312 L 70.839844 25.0625 C 70.96875 25.300781 70.984375 25.3125 71.285156 25.328125 C 71.460938 25.339844 71.621094 25.324219 71.652344 25.292969 C 71.726562 25.21875 70.179688 21.90625 70.058594 21.882812 C 70 21.871094 69.9375 21.9375 69.886719 22.058594 Z M 70.25 23.769531 C 70.34375 23.960938 70.402344 24.132812 70.382812 24.148438 C 70.316406 24.214844 69.730469 24.183594 69.730469 24.121094 C 69.730469 24.023438 70.03125 23.371094 70.058594 23.398438 C 70.078125 23.410156 70.160156 23.578125 70.25 23.769531 Z M 70.25 23.769531 " fill-opacity="1" fill-rule="nonzero"/><path fill="#000000" d="M 78.914062 21.914062 C 78.851562 22.015625 78.34375 25.171875 78.375 25.261719 C 78.398438 25.328125 78.488281 25.339844 78.742188 25.328125 L 79.078125 25.3125 L 79.1875 24.542969 C 79.25 24.121094 79.320312 23.796875 79.34375 23.820312 C 79.367188 23.84375 79.558594 24.195312 79.773438 24.601562 C 79.980469 25 80.1875 25.347656 80.234375 25.359375 C 80.339844 25.40625 80.367188 25.363281 80.8125 24.515625 C 81.027344 24.109375 81.207031 23.78125 81.21875 23.78125 C 81.222656 23.78125 81.277344 24.074219 81.328125 24.425781 C 81.480469 25.433594 81.425781 25.339844 81.820312 25.339844 C 82.027344 25.339844 82.171875 25.3125 82.183594 25.277344 C 82.195312 25.238281 82.109375 24.648438 81.996094 23.960938 C 81.878906 23.269531 81.75 22.519531 81.710938 22.289062 C 81.601562 21.628906 81.53125 21.6875 80.859375 22.9375 C 80.546875 23.527344 80.273438 23.988281 80.253906 23.964844 C 80.230469 23.941406 79.96875 23.46875 79.667969 22.914062 C 79.175781 22 79 21.769531 78.914062 21.914062 Z M 78.914062 21.914062 " fill-opacity="1" fill-rule="nonzero"/><path fill="#000000" d="M 87.890625 21.957031 C 87.515625 22.082031 87.03125 22.535156 86.863281 22.925781 C 86.472656 23.820312 86.953125 24.960938 87.839844 25.253906 C 88.222656 25.382812 88.933594 25.351562 89.222656 25.203125 C 89.535156 25.039062 89.871094 24.703125 90.035156 24.394531 C 90.15625 24.148438 90.183594 24.015625 90.183594 23.636719 C 90.191406 23.109375 90.074219 22.796875 89.761719 22.433594 C 89.355469 21.976562 88.515625 21.761719 87.890625 21.957031 Z M 88.980469 22.804688 C 89.496094 23.113281 89.582031 23.804688 89.171875 24.269531 C 88.59375 24.929688 87.5 24.496094 87.5 23.605469 C 87.5 23.328125 87.597656 23.113281 87.828125 22.90625 C 88.148438 22.605469 88.597656 22.566406 88.980469 22.804688 Z M 88.980469 22.804688 " fill-opacity="1" fill-rule="nonzero"/><path fill="#000000" d="M 72.113281 23.617188 L 72.132812 25.3125 L 72.914062 25.3125 C 73.828125 25.3125 74.117188 25.230469 74.523438 24.855469 C 74.882812 24.527344 75.054688 24.136719 75.054688 23.660156 C 75.054688 22.953125 74.769531 22.457031 74.179688 22.132812 C 73.878906 21.964844 73.839844 21.957031 72.984375 21.941406 L 72.101562 21.917969 Z M 73.683594 22.703125 C 74.09375 22.871094 74.355469 23.386719 74.25 23.832031 C 74.140625 24.339844 73.796875 24.589844 73.207031 24.589844 L 72.855469 24.589844 L 72.855469 22.625 L 73.171875 22.625 C 73.351562 22.625 73.578125 22.660156 73.683594 22.703125 Z M 73.683594 22.703125 " fill-opacity="1" fill-rule="nonzero"/><path fill="#000000" d="M 75.703125 23.617188 L 75.71875 25.3125 L 77.863281 25.3125 L 77.863281 24.617188 L 77.15625 24.601562 L 76.445312 24.582031 L 76.445312 23.960938 L 77.039062 23.941406 L 77.628906 23.925781 L 77.648438 23.589844 L 77.664062 23.257812 L 76.445312 23.257812 L 76.445312 22.625 L 77.890625 22.625 L 77.890625 21.929688 L 75.691406 21.929688 Z M 75.703125 23.617188 " fill-opacity="1" fill-rule="nonzero"/><path fill="#000000" d="M 82.324219 21.976562 C 82.308594 22.003906 82.539062 22.390625 82.839844 22.84375 L 83.382812 23.660156 L 83.402344 24.484375 L 83.417969 25.3125 L 84.113281 25.3125 L 84.128906 24.515625 L 84.148438 23.714844 L 84.675781 22.925781 C 84.964844 22.496094 85.210938 22.09375 85.230469 22.035156 C 85.253906 21.941406 85.210938 21.929688 84.871094 21.929688 L 84.488281 21.929688 L 84.164062 22.421875 C 83.980469 22.691406 83.816406 22.914062 83.792969 22.914062 C 83.769531 22.914062 83.609375 22.691406 83.421875 22.421875 L 83.101562 21.929688 L 82.730469 21.929688 C 82.519531 21.929688 82.339844 21.953125 82.324219 21.976562 Z M 82.324219 21.976562 " fill-opacity="1" fill-rule="nonzero"/><path fill="#000000" d="M 90.828125 22.003906 C 90.808594 22.046875 90.804688 22.804688 90.808594 23.691406 L 90.828125 25.3125 L 91.519531 25.3125 L 91.539062 24.691406 L 91.554688 24.074219 L 92.144531 24.058594 L 92.734375 24.039062 L 92.734375 23.347656 L 92.144531 23.328125 L 91.550781 23.3125 L 91.550781 22.625 L 92.996094 22.625 L 92.996094 21.929688 L 91.925781 21.929688 C 91.117188 21.929688 90.84375 21.949219 90.828125 22.003906 Z M 90.828125 22.003906 " fill-opacity="1" fill-rule="nonzero"/><path fill="#000000" d="M 66.824219 27.914062 C 66.519531 28.011719 66.292969 28.25 66.195312 28.578125 C 66.050781 29.050781 66.371094 29.554688 67.003906 29.832031 C 67.421875 30.019531 67.589844 30.171875 67.589844 30.375 C 67.589844 30.6875 67.234375 30.746094 66.777344 30.515625 C 66.621094 30.433594 66.484375 30.371094 66.464844 30.371094 C 66.453125 30.371094 66.371094 30.492188 66.285156 30.636719 C 66.101562 30.949219 66.125 30.996094 66.5625 31.183594 C 66.941406 31.347656 67.582031 31.371094 67.855469 31.21875 C 68.113281 31.082031 68.386719 30.75 68.433594 30.507812 C 68.480469 30.25 68.382812 29.90625 68.191406 29.675781 C 68.109375 29.585938 67.84375 29.40625 67.601562 29.289062 C 67.074219 29.039062 66.953125 28.949219 66.953125 28.78125 C 66.953125 28.484375 67.292969 28.433594 67.726562 28.664062 C 67.878906 28.746094 68.011719 28.808594 68.023438 28.808594 C 68.082031 28.808594 68.339844 28.371094 68.339844 28.277344 C 68.339844 28.140625 67.78125 27.882812 67.410156 27.855469 C 67.222656 27.839844 66.988281 27.859375 66.824219 27.914062 Z M 66.824219 27.914062 " fill-opacity="1" fill-rule="nonzero"/><path fill="#000000" d="M 70.164062 27.878906 C 69.65625 28.011719 69.203125 28.382812 68.972656 28.84375 C 68.863281 29.070312 68.832031 29.21875 68.832031 29.589844 C 68.832031 29.960938 68.863281 30.109375 68.972656 30.335938 C 69.398438 31.207031 70.480469 31.585938 71.320312 31.152344 C 71.808594 30.902344 71.835938 30.828125 71.554688 30.542969 L 71.320312 30.3125 L 71.089844 30.433594 C 70.765625 30.601562 70.28125 30.566406 70 30.351562 C 69.609375 30.050781 69.515625 29.449219 69.792969 29 C 70.035156 28.605469 70.660156 28.457031 71.050781 28.695312 C 71.304688 28.851562 71.355469 28.84375 71.582031 28.605469 C 71.824219 28.359375 71.789062 28.277344 71.363281 28.039062 C 71.042969 27.867188 70.488281 27.792969 70.164062 27.878906 Z M 70.164062 27.878906 " fill-opacity="1" fill-rule="nonzero"/><path fill="#000000" d="M 76.820312 27.902344 C 76.800781 27.941406 76.796875 28.710938 76.800781 29.617188 L 76.820312 31.265625 L 77.160156 31.285156 C 77.398438 31.296875 77.519531 31.277344 77.550781 31.226562 C 77.578125 31.183594 77.601562 30.761719 77.601562 30.285156 L 77.601562 29.417969 L 78.578125 30.394531 C 79.273438 31.085938 79.585938 31.359375 79.648438 31.335938 C 79.730469 31.300781 79.742188 31.097656 79.742188 29.589844 L 79.742188 27.882812 L 78.996094 27.882812 L 78.980469 28.792969 L 78.960938 29.707031 L 77.988281 28.761719 C 77.449219 28.25 76.976562 27.828125 76.929688 27.828125 C 76.882812 27.828125 76.832031 27.859375 76.820312 27.902344 Z M 76.820312 27.902344 " fill-opacity="1" fill-rule="nonzero"/><path fill="#000000" d="M 81.652344 27.902344 C 80.859375 28.128906 80.363281 28.78125 80.363281 29.589844 C 80.363281 30.285156 80.722656 30.851562 81.351562 31.164062 C 81.941406 31.453125 82.828125 31.335938 83.214844 30.917969 L 83.34375 30.78125 L 83.109375 30.53125 L 82.878906 30.285156 L 82.648438 30.417969 C 82.171875 30.683594 81.636719 30.542969 81.316406 30.082031 C 81.203125 29.90625 81.183594 29.828125 81.203125 29.519531 C 81.246094 28.746094 81.917969 28.359375 82.621094 28.707031 L 82.875 28.832031 L 83.105469 28.59375 L 83.34375 28.363281 L 83.210938 28.230469 C 82.875 27.914062 82.15625 27.757812 81.652344 27.902344 Z M 81.652344 27.902344 " fill-opacity="1" fill-rule="nonzero"/><path fill="#000000" d="M 87.179688 27.90625 C 86.867188 28.023438 86.589844 28.351562 86.539062 28.664062 C 86.46875 29.15625 86.773438 29.578125 87.410156 29.851562 C 87.789062 30.011719 87.960938 30.179688 87.960938 30.375 C 87.960938 30.6875 87.609375 30.746094 87.152344 30.515625 C 86.996094 30.433594 86.855469 30.371094 86.839844 30.371094 C 86.828125 30.371094 86.746094 30.492188 86.660156 30.636719 C 86.472656 30.949219 86.496094 30.996094 86.9375 31.183594 C 87.3125 31.347656 87.957031 31.371094 88.226562 31.21875 C 88.730469 30.960938 88.941406 30.429688 88.726562 29.953125 C 88.59375 29.652344 88.355469 29.449219 87.867188 29.238281 C 87.457031 29.058594 87.324219 28.949219 87.324219 28.78125 C 87.324219 28.484375 87.667969 28.433594 88.101562 28.664062 C 88.25 28.746094 88.382812 28.808594 88.394531 28.808594 C 88.453125 28.808594 88.714844 28.371094 88.714844 28.277344 C 88.714844 28.132812 88.167969 27.890625 87.757812 27.855469 C 87.527344 27.832031 87.335938 27.855469 87.179688 27.90625 Z M 87.179688 27.90625 " fill-opacity="1" fill-rule="nonzero"/><path fill="#000000" d="M 72.363281 27.960938 C 72.347656 28 72.339844 28.757812 72.347656 29.648438 L 72.363281 31.265625 L 72.726562 31.285156 L 73.085938 31.300781 L 73.085938 27.882812 L 72.738281 27.882812 C 72.507812 27.882812 72.378906 27.90625 72.363281 27.960938 Z M 72.363281 27.960938 " fill-opacity="1" fill-rule="nonzero"/><path fill="#000000" d="M 73.953125 29.589844 L 73.953125 31.296875 L 75.042969 31.285156 L 76.125 31.265625 L 76.144531 30.929688 L 76.160156 30.601562 L 74.707031 30.601562 L 74.707031 29.914062 L 75.304688 29.894531 L 75.894531 29.878906 L 75.894531 29.242188 L 75.304688 29.226562 L 74.707031 29.207031 L 74.707031 28.578125 L 76.160156 28.578125 L 76.144531 28.242188 L 76.125 27.914062 L 75.042969 27.894531 L 73.953125 27.882812 Z M 73.953125 29.589844 " fill-opacity="1" fill-rule="nonzero"/><path fill="#000000" d="M 83.886719 27.976562 C 83.871094 28.027344 83.851562 28.75 83.851562 29.589844 C 83.851562 30.429688 83.871094 31.152344 83.886719 31.203125 C 83.914062 31.285156 84.070312 31.296875 84.988281 31.296875 L 86.050781 31.296875 L 86.085938 31.15625 C 86.101562 31.082031 86.109375 30.9375 86.097656 30.828125 L 86.082031 30.628906 L 85.375 30.613281 L 84.664062 30.597656 L 84.664062 29.90625 L 85.820312 29.90625 L 85.820312 29.214844 L 84.664062 29.214844 L 84.664062 28.582031 L 85.375 28.566406 L 86.082031 28.550781 L 86.097656 28.351562 C 86.109375 28.242188 86.101562 28.097656 86.085938 28.023438 L 86.050781 27.882812 L 84.988281 27.882812 C 84.070312 27.882812 83.914062 27.894531 83.886719 27.976562 Z M 83.886719 27.976562 " fill-opacity="1" fill-rule="nonzero"/><g clip-path="url(#bc49dcfa54)"><path fill="#000000" d="M 0.566406 43.234375 L 0.566406 44.9375 L 51.847656 44.9375 L 51.847656 41.527344 L 0.566406 41.527344 Z M 0.566406 43.234375 " fill-opacity="1" fill-rule="nonzero"/></g><path fill="#00aecc" d="M 172.765625 18.328125 L 184.460938 18.328125 C 184.445312 17.613281 184.285156 16.910156 183.988281 16.261719 C 183.695312 15.613281 183.273438 15.027344 182.746094 14.546875 C 181.621094 13.605469 180.183594 13.121094 178.722656 13.1875 C 177.25 13.125 175.808594 13.609375 174.671875 14.546875 C 173.59375 15.527344 172.914062 16.875 172.765625 18.328125 M 178.9375 31.753906 C 176.980469 31.800781 175.046875 31.332031 173.324219 30.398438 C 171.738281 29.5 170.4375 28.167969 169.578125 26.554688 C 168.648438 24.777344 168.183594 22.792969 168.226562 20.789062 L 168.226562 20.269531 C 168.179688 18.253906 168.636719 16.257812 169.554688 14.464844 C 170.398438 12.851562 171.683594 11.519531 173.253906 10.621094 C 174.941406 9.6875 176.839844 9.21875 178.757812 9.261719 C 180.625 9.21875 182.46875 9.691406 184.09375 10.621094 C 185.613281 11.519531 186.851562 12.828125 187.671875 14.402344 C 188.5625 16.152344 189.007812 18.097656 188.960938 20.066406 L 188.960938 21.746094 L 172.726562 21.746094 C 172.71875 22.582031 172.878906 23.410156 173.199219 24.179688 C 173.519531 24.949219 173.996094 25.640625 174.59375 26.21875 C 175.800781 27.332031 177.390625 27.929688 179.027344 27.878906 C 180.371094 27.980469 181.703125 27.582031 182.777344 26.757812 C 183.597656 26.039062 184.261719 25.15625 184.726562 24.167969 L 188.367188 26.066406 C 187.890625 26.984375 187.308594 27.835938 186.628906 28.613281 C 185.800781 29.558594 184.789062 30.324219 183.652344 30.859375 C 182.171875 31.511719 180.5625 31.824219 178.941406 31.765625 " fill-opacity="1" fill-rule="nonzero"/><path fill="#00aecc" d="M 241.15625 0.929688 L 234.601562 28.042969 L 233.917969 28.042969 L 227.363281 0.929688 L 214.46875 0.929688 L 207.917969 28.042969 L 207.230469 28.042969 L 200.675781 0.929688 L 191.980469 0.929688 L 191.980469 31.152344 L 196.480469 31.152344 L 196.480469 4.207031 L 197.164062 4.207031 L 203.675781 31.148438 L 211.46875 31.148438 L 217.980469 4.207031 L 218.667969 4.207031 L 218.667969 31.152344 L 223.164062 31.152344 L 223.164062 4.207031 L 223.851562 4.207031 L 230.363281 31.148438 L 238.15625 31.148438 L 244.667969 4.207031 L 245.355469 4.207031 L 245.355469 31.152344 L 249.851562 31.152344 L 249.851562 0.929688 Z M 241.15625 0.929688 " fill-opacity="1" fill-rule="nonzero"/><g clip-path="url(#1c035270d2)"><path fill="#00aecc" d="M 249.851562 41.289062 L 141.960938 41.289062 L 141.960938 44.664062 L 249.851562 44.664062 Z M 249.851562 41.289062 " fill-opacity="1" fill-rule="nonzero"/></g><g clip-path="url(#10722aa794)"><path fill="#00aecc" d="M 153.867188 31.753906 C 150.214844 31.753906 147.316406 30.710938 145.175781 28.625 C 143.03125 26.542969 141.960938 23.527344 141.960938 19.578125 L 141.960938 12.496094 C 141.960938 8.554688 143.03125 5.539062 145.175781 3.449219 C 147.316406 1.363281 150.214844 0.316406 153.867188 0.316406 C 157.46875 0.316406 160.246094 1.324219 162.199219 3.339844 C 164.152344 5.355469 165.128906 8.101562 165.128906 11.578125 L 165.128906 11.839844 L 160.550781 11.839844 L 160.550781 11.449219 C 160.628906 9.632812 160.039062 7.851562 158.902344 6.441406 C 157.800781 5.148438 156.125 4.503906 153.867188 4.515625 C 152.878906 4.457031 151.890625 4.617188 150.96875 4.976562 C 150.042969 5.339844 149.207031 5.894531 148.515625 6.609375 C 147.230469 8.003906 146.589844 9.9375 146.589844 12.410156 L 146.589844 19.664062 C 146.472656 21.769531 147.160156 23.84375 148.515625 25.449219 C 149.203125 26.171875 150.039062 26.730469 150.960938 27.097656 C 151.886719 27.460938 152.878906 27.621094 153.867188 27.566406 C 156.125 27.566406 157.800781 26.914062 158.902344 25.601562 C 160.035156 24.199219 160.621094 22.425781 160.550781 20.617188 L 160.550781 19.878906 L 165.136719 19.878906 L 165.136719 20.484375 C 165.136719 23.96875 164.15625 26.714844 162.203125 28.726562 C 160.25 30.734375 157.472656 31.742188 153.875 31.746094 " fill-opacity="1" fill-rule="nonzero"/></g><g clip-path="url(#b66c026fd5)"><path stroke-linecap="butt" transform="matrix(0.729348, 0, 0, 0.728672, -42.875282, -25.015323)" fill="none" stroke-linejoin="miter" d="M 226.497721 34.86072 L 226.497721 94.756684 " stroke="#0f5568" stroke-width="1" stroke-opacity="1" stroke-miterlimit="4"/></g></svg>