<?xml version="1.0" encoding="UTF-8"?>
<svg id="Layer_2" data-name="Layer 2" xmlns="http://www.w3.org/2000/svg" xmlns:xlink="http://www.w3.org/1999/xlink" viewBox="0 0 109.38 137.34">
  <defs>
    <style>
      .cls-1 {
        fill: url(#linear-gradient);
      }

      .cls-1, .cls-2, .cls-3, .cls-4, .cls-5, .cls-6, .cls-7, .cls-8, .cls-9, .cls-10, .cls-11 {
        stroke-width: 0px;
      }

      .cls-2 {
        fill: #c8c8c8;
        opacity: .8;
      }

      .cls-12 {
        fill: #7e698e;
        font-family: LibreBarcode128Text-Regular, 'Libre Barcode 128 Text';
        font-size: 28.36px;
      }

      .cls-3 {
        fill: #d6c9c9;
      }

      .cls-3, .cls-4 {
        fill-rule: evenodd;
      }

      .cls-4 {
        fill: #f4f4f4;
      }

      .cls-5 {
        fill: #b890c2;
      }

      .cls-6 {
        fill: #baa898;
      }

      .cls-7 {
        fill: #998c81;
      }

      .cls-8 {
        fill: #ffd449;
      }

      .cls-9 {
        fill: #eee0cb;
      }

      .cls-10 {
        fill: #f0e9ee;
      }

      .cls-11 {
        fill: #010101;
      }
    </style>
    <linearGradient id="linear-gradient" x1="-6.5" y1="8.01" x2="115.2" y2="128.97" gradientUnits="userSpaceOnUse">
      <stop offset="0" stop-color="#cdb9da"/>
      <stop offset=".3" stop-color="#f2e7f0"/>
      <stop offset=".47" stop-color="#f9e2ee"/>
      <stop offset=".62" stop-color="#f2e9f2"/>
      <stop offset="1" stop-color="#cecbe6"/>
    </linearGradient>
  </defs>
  <g id="Layer_1-2" data-name="Layer 1">
    <g>
      <rect class="cls-2" x=".68" y="1.08" width="108.7" height="136.26"/>
      <rect class="cls-1" width="108.7" height="136.98"/>
      <rect class="cls-10" y="102.9" width="108.7" height="34.08"/>
      <path class="cls-3" d="M18.34,6.63h73.71c4.42,0,6.62,2.31,6.62,6.92v77.02c0,4.61-2.21,6.92-6.62,6.92H18.34c-4.42,0-6.62-2.31-6.62-6.92V13.55c0-4.61,2.21-6.92,6.62-6.92Z"/>
      <path class="cls-4" d="M17.1,5.74h74.51c4.46,0,6.7,2.31,6.7,6.93v77.15c0,4.62-2.23,6.93-6.7,6.93H17.1c-4.46,0-6.69-2.31-6.69-6.93V12.67c0-4.62,2.23-6.93,6.69-6.93Z"/>
      <g>
        <g>
          <g>
            <g>
              <path class="cls-7" d="M63.25,63.39c-.02,1.36-.03,2.72-.04,4.08,0,.72-.1,1.43-.17,2.14-.07.73-.15,1.45-.23,2.18-.32,2.82-.71,5.64-1.3,8.43-.31,1.45-.67,2.89-1.13,4.3-.19.58-.4,1.16-.63,1.73-.22.56-.42,1.14-1,1.43.05-.02.09-.04.12-.06,0,0,0,0,0,0-.09.07-.24.16-.36.22-.3.15-.59.2-.91.1-.39-.13-.52-.42-.67-.71-.05-.12-.09-.24-.12-.36-.02-.05-.04-.09-.05-.11-.05-.16-.06-.33-.05-.51.1-.46.11-.5.03-.14.02-.12.04-.24.07-.36.08-.47.15-.94.21-1.41.12-1.01.19-2.02.23-3.03.08-2.09.06-4.18-.03-6.28-.04-.65-.09-1.3-.12-1.95-.07-1.02-.16-2.05-.25-3.07-.05-.51-.09-1.02-.14-1.53-.08-.79-.08-1.59-.09-2.38-.04-1.96-.05-3.92-.14-5.88-.04-.8-.09-1.59-.13-2.39l.04.89c-.08-1.64-.2-3.27-.31-4.9-.01-.3-.03-.59-.04-.89.05-.63.26-1.2.62-1.71.51-.72,1.31-1.23,2.18-1.39.9-.16,1.85.05,2.6.58.66.47,1.32,1.34,1.39,2.18.16,2.03.33,4.07.41,6.11.07,1.56.06,3.13.04,4.69Z"/>
              <path class="cls-6" d="M56.74,86.76c.02.07.05.15.08.22-.11-.2-.11-.25-.08-.22Z"/>
              <path class="cls-6" d="M58.86,87.62c.09-.07.21-.11,0,0h0Z"/>
            </g>
            <g>
              <path class="cls-9" d="M55.47,91.72s-.12.02-.12-.04c.02-.41.26-.89.43-1.27.21-.46.42-.93.61-1.4.2-.49.36-1,.46-1.51.02-.13.1-.83.34-.75.23.08.12.67.09.88-.07.48-.22.96-.4,1.42-.19.48-.42.93-.66,1.38-.22.42-.44.94-.76,1.29Z"/>
              <path class="cls-9" d="M56.21,91.93s-.12.02-.12-.04c.02-.41.26-.89.43-1.27.21-.46.42-.93.61-1.4.2-.49.36-1,.46-1.51.02-.13.1-.83.34-.75.23.08.12.67.09.88-.07.48-.22.96-.4,1.42-.19.48-.42.93-.66,1.38-.22.42-.44.94-.76,1.29Z"/>
              <path class="cls-9" d="M57.02,91.96s-.12.02-.12-.04c.02-.41.26-.89.43-1.27.21-.46.42-.93.61-1.4.2-.49.36-1,.46-1.51.02-.13.1-.83.34-.75.23.08.12.67.09.88-.07.48-.22.96-.4,1.42-.19.48-.42.93-.66,1.38-.22.42-.44.94-.76,1.29Z"/>
            </g>
          </g>
          <g>
            <g>
              <path class="cls-7" d="M67.45,64.56c.02,1.36.03,2.72.04,4.08,0,.72.1,1.43.17,2.14.07.73.15,1.45.23,2.18.32,2.82.71,5.64,1.3,8.43.31,1.45.67,2.89,1.13,4.3.19.58.4,1.16.63,1.73.22.56.42,1.14,1,1.43-.05-.02-.09-.04-.12-.06,0,0,0,0,0,0,.09.07.24.16.36.22.3.15.59.2.91.1.39-.13.52-.42.67-.71.05-.12.09-.24.12-.36.02-.05.04-.09.05-.11.05-.16.06-.33.05-.51-.1-.46-.11-.5-.03-.14-.02-.12-.04-.24-.07-.36-.08-.47-.15-.94-.21-1.41-.12-1.01-.19-2.02-.23-3.03-.08-2.09-.06-4.18.03-6.28.04-.65.09-1.3.12-1.95.07-1.02.16-2.05.25-3.07.05-.51.09-1.02.14-1.53.08-.79.08-1.59.09-2.38.04-1.96.05-3.92.14-5.88.04-.8.09-1.59.13-2.39l-.04.89c.08-1.64.2-3.27.31-4.9.01-.3.03-.59.04-.89-.05-.63-.26-1.2-.62-1.71-.51-.72-1.31-1.23-2.18-1.39-.9-.16-1.85.05-2.6.58-.66.47-1.32,1.34-1.39,2.18-.16,2.03-.33,4.07-.41,6.11-.07,1.56-.06,3.13-.04,4.69Z"/>
              <path class="cls-6" d="M73.95,87.93c-.02.07-.05.15-.08.22.11-.2.11-.25.08-.22Z"/>
              <path class="cls-6" d="M71.84,88.79c-.09-.07-.21-.11,0,0h0Z"/>
            </g>
            <g>
              <path class="cls-9" d="M75.23,92.89s.12.02.12-.04c-.02-.41-.26-.89-.43-1.27-.21-.46-.42-.93-.61-1.4-.2-.49-.36-1-.46-1.51-.02-.13-.1-.83-.34-.75-.23.08-.12.67-.09.88.07.48.22.96.4,1.42.19.48.42.93.66,1.38.22.42.44.94.76,1.29Z"/>
              <path class="cls-9" d="M74.48,93.1s.12.02.12-.04c-.02-.41-.26-.89-.43-1.27-.21-.46-.42-.93-.61-1.4-.2-.49-.36-1-.46-1.51-.02-.13-.1-.83-.34-.75-.23.08-.12.67-.09.88.07.48.22.96.4,1.42.19.48.42.93.66,1.38.22.42.44.94.76,1.29Z"/>
              <path class="cls-9" d="M73.67,93.13s.12.02.12-.04c-.02-.41-.26-.89-.43-1.27-.21-.46-.42-.93-.61-1.4-.2-.49-.36-1-.46-1.51-.02-.13-.1-.83-.34-.75-.23.08-.12.67-.09.88.07.48.22.96.4,1.42.19.48.42.93.66,1.38.22.42.44.94.76,1.29Z"/>
            </g>
          </g>
          <path class="cls-8" d="M91.36,43.53c-9.67,19.19-29.56,28.01-44.44,19.69-14.87-8.31-19.1-30.61-9.43-49.8.47-.94.97-1.86,1.49-2.75-12.98,6.72-21.59,21.09-20.81,37.27,1.05,21.71,18.61,38.43,39.23,37.36,20.62-1.07,36.49-19.53,35.45-41.24-.05-1.07-.14-2.12-.27-3.16-.38.88-.79,1.76-1.23,2.63Z"/>
          <g>
            <g>
              <path class="cls-6" d="M75.91,63.39c.02,1.36.03,2.72.04,4.08,0,.72.1,1.43.17,2.14.07.73.15,1.45.23,2.18.32,2.82.71,5.64,1.3,8.43.31,1.45.67,2.89,1.13,4.3.19.58.4,1.16.63,1.73.22.56.42,1.14,1,1.43-.05-.02-.09-.04-.12-.06,0,0,0,0,0,0,.09.07.24.16.36.22.3.15.59.2.91.1.39-.13.52-.42.67-.71.05-.12.09-.24.12-.36.02-.05.04-.09.05-.11.05-.16.06-.33.05-.51-.1-.46-.11-.5-.03-.14-.02-.12-.04-.24-.07-.36-.08-.47-.15-.94-.21-1.41-.12-1.01-.19-2.02-.23-3.03-.08-2.09-.06-4.18.03-6.28.04-.65.09-1.3.12-1.95.07-1.02.16-2.05.25-3.07.05-.51.09-1.02.14-1.53.08-.79.08-1.59.09-2.38.04-1.96.05-3.92.14-5.88.04-.8.09-1.59.13-2.39l-.04.89c.08-1.64.2-3.27.31-4.9.01-.3.03-.59.04-.89-.05-.63-.26-1.2-.62-1.71-.51-.72-1.31-1.23-2.18-1.39-.9-.16-1.85.05-2.6.58-.66.47-1.32,1.34-1.39,2.18-.16,2.03-.33,4.07-.41,6.11-.07,1.56-.06,3.13-.04,4.69Z"/>
              <path class="cls-6" d="M82.41,86.76c-.02.07-.05.15-.08.22.11-.2.11-.25.08-.22Z"/>
              <path class="cls-6" d="M80.29,87.62c-.09-.07-.21-.11,0,0h0Z"/>
            </g>
            <g>
              <path class="cls-9" d="M83.69,91.72s.12.02.12-.04c-.02-.41-.26-.89-.43-1.27-.21-.46-.42-.93-.61-1.4-.2-.49-.36-1-.46-1.51-.02-.13-.1-.83-.34-.75-.23.08-.12.67-.09.88.07.48.22.96.4,1.42.19.48.42.93.66,1.38.22.42.44.94.76,1.29Z"/>
              <path class="cls-9" d="M82.94,91.93s.12.02.12-.04c-.02-.41-.26-.89-.43-1.27-.21-.46-.42-.93-.61-1.4-.2-.49-.36-1-.46-1.51-.02-.13-.1-.83-.34-.75-.23.08-.12.67-.09.88.07.48.22.96.4,1.42.19.48.42.93.66,1.38.22.42.44.94.76,1.29Z"/>
              <path class="cls-9" d="M82.13,91.96s.12.02.12-.04c-.02-.41-.26-.89-.43-1.27-.21-.46-.42-.93-.61-1.4-.2-.49-.36-1-.46-1.51-.02-.13-.1-.83-.34-.75-.23.08-.12.67-.09.88.07.48.22.96.4,1.42.19.48.42.93.66,1.38.22.42.44.94.76,1.29Z"/>
            </g>
          </g>
          <g>
            <g>
              <path class="cls-6" d="M45.37,64.56c.02,1.36.03,2.72.04,4.08,0,.72.1,1.43.17,2.14.07.73.15,1.45.23,2.18.32,2.82.71,5.64,1.3,8.43.31,1.45.67,2.89,1.13,4.3.19.58.4,1.16.63,1.73.22.56.42,1.14,1,1.43-.05-.02-.09-.04-.12-.06,0,0,0,0,0,0,.09.07.24.16.36.22.3.15.59.2.91.1.39-.13.52-.42.67-.71.05-.12.09-.24.12-.36.02-.05.04-.09.05-.11.05-.16.06-.33.05-.51-.1-.46-.11-.5-.03-.14-.02-.12-.04-.24-.07-.36-.08-.47-.15-.94-.21-1.41-.12-1.01-.19-2.02-.23-3.03-.08-2.09-.06-4.18.03-6.28.04-.65.09-1.3.12-1.95.07-1.02.16-2.05.25-3.07.05-.51.09-1.02.14-1.53.08-.79.08-1.59.09-2.38.04-1.96.05-3.92.14-5.88.04-.8.09-1.59.13-2.39l-.04.89c.08-1.64.2-3.27.31-4.9.01-.3.03-.59.04-.89-.05-.63-.26-1.2-.62-1.71-.51-.72-1.31-1.23-2.18-1.39-.9-.16-1.85.05-2.6.58-.66.47-1.32,1.34-1.39,2.18-.16,2.03-.33,4.07-.41,6.11-.07,1.56-.06,3.13-.04,4.69Z"/>
              <path class="cls-6" d="M51.87,87.93c-.02.07-.05.15-.08.22.11-.2.11-.25.08-.22Z"/>
              <path class="cls-6" d="M49.75,88.79c-.09-.07-.21-.11,0,0h0Z"/>
            </g>
            <g>
              <path class="cls-9" d="M53.15,92.89s.12.02.12-.04c-.02-.41-.26-.89-.43-1.27-.21-.46-.42-.93-.61-1.4-.2-.49-.36-1-.46-1.51-.02-.13-.1-.83-.34-.75-.23.08-.12.67-.09.88.07.48.22.96.4,1.42.19.48.42.93.66,1.38.22.42.44.94.76,1.29Z"/>
              <path class="cls-9" d="M52.4,93.1s.12.02.12-.04c-.02-.41-.26-.89-.43-1.27-.21-.46-.42-.93-.61-1.4-.2-.49-.36-1-.46-1.51-.02-.13-.1-.83-.34-.75-.23.08-.12.67-.09.88.07.48.22.96.4,1.42.19.48.42.93.66,1.38.22.42.44.94.76,1.29Z"/>
              <path class="cls-9" d="M51.59,93.13s.12.02.12-.04c-.02-.41-.26-.89-.43-1.27-.21-.46-.42-.93-.61-1.4-.2-.49-.36-1-.46-1.51-.02-.13-.1-.83-.34-.75-.23.08-.12.67-.09.88.07.48.22.96.4,1.42.19.48.42.93.66,1.38.22.42.44.94.76,1.29Z"/>
            </g>
          </g>
          <g>
            <g>
              <g>
                <path class="cls-6" d="M79.22,63.98s-.05.05-.08.08c-.03.04-.07.07-.1.11.06-.06.12-.12.18-.18Z"/>
                <path class="cls-6" d="M79.22,63.98c.09-.1.19-.19.28-.29-.09.1-.19.19-.28.29Z"/>
                <path class="cls-6" d="M82.58,50.72c-1.03-2-3.09-3.41-6.51-3.43-1.72-.01-3.42.21-5.1.52-4.33.79-8.81,1.3-13.2.4.08.01.16.03.23.04-5.66-1.07-11.29-3.12-17.15-2.55-.54.05-1.08.14-1.6.29-7.08,1.94-3.39,9.14-.56,12.98.91,1.23,1.92,2.47,3.03,3.55,2.44,2.37,5.34,4.59,8.6,5.98-.07-.04-.15-.07-.23-.09,4.98,2.87,11.52,2.91,17.06,1.84,2.28-.44,4.51-1.13,6.54-2.17,1.1-.56,2.15-1.2,3.12-1.93.84-.63,1.59-1.34,2.32-2.07,1.22-1.24,2.19-2.7,2.94-4.22-.04.07-.08.13-.11.2,1.45-2.78,2.11-6.41.61-9.31Z"/>
              </g>
              <path class="cls-9" d="M42.97,47.3c1.76,1,2.13,3.34.83,5.23-1.3,1.89-3.79,2.6-5.55,1.6-1.76-1-2.13-3.34-.83-5.23,1.3-1.89,3.79-2.6,5.55-1.6Z"/>
              <path class="cls-6" d="M38.11,50.89c.83.25,1.22,1.22.88,2.18-.34.96-1.28,1.53-2.11,1.28-.83-.25-1.22-1.22-.88-2.18.34-.96,1.28-1.53,2.11-1.28Z"/>
              <path class="cls-6" d="M39.98,48.59c.39.7,1.51.92,2.51.48,1-.44,1.5-1.36,1.11-2.07-.39-.7-1.51-.92-2.51-.48-1,.44-1.5,1.36-1.11,2.07Z"/>
              <path class="cls-11" d="M42.36,49.76c-.09-.11-.28,0-.25.11.07.35.15.69.06,1.04-.05.19-.12.37-.22.55-.03-.02-.07-.03-.1-.05-.11-.06-.23-.12-.35-.17-.01,0-.05-.02-.09-.04.18-.3.25-.6.19-.78,0-.22-.29-.41-.46-.54-.26-.2-.54-.37-.81-.55-.08-.06-.18.05-.12.12.2.21.41.38.64.56.09.07-.16.55-.36.84-.19.27-.55.68-.64.64-.28-.12-.57-.22-.86-.32-.07-.02-.12.07-.06.11.28.15.54.31.83.44.26.12.56.24.86.17.28-.07.5-.3.65-.51.07.03.14.07.21.11.1.05.21.12.32.18-.03.04-.06.08-.09.12-.2.27-.47.48-.79.63-.34.15-.7.16-1.07.18-.06,0-.05.08,0,.1.77.35,1.64-.18,2.12-.69.27-.29.43-.65.51-1.03.07-.36.11-.9-.13-1.21Z"/>
              <path class="cls-11" d="M41.35,47.65c-.08-.11-.29.01-.21.13.13.19.06.42-.1.57-.16.15-.39.1-.6.14-.1.02-.12.15-.01.18.29.09.66.02.85-.19.21-.23.27-.57.07-.83Z"/>
              <path class="cls-11" d="M37.45,52.4c-.14-.04-.07-.25.07-.22.24.05.47-.07.58-.26.11-.18-.01-.37-.03-.56,0-.09.12-.14.19-.07.19.22.23.56.06.79-.18.25-.52.4-.85.31Z"/>
              <path class="cls-11" d="M42.81,51.4c-.03-.05-.12-.06-.15-.01-.07.12-.09.26-.16.38-.07.12-.21.23-.25.37,0,.03.02.06.05.06.18-.02.3-.19.39-.31.1-.13.2-.34.12-.49Z"/>
              <g>
                <path class="cls-11" d="M40.16,58.9c-.11-.2-.31-.34-.48-.5-.17-.15-.32-.33-.51-.47-.05-.03-.11.02-.09.07.11.19.28.36.44.52.17.17.33.35.57.44.04.02.08-.03.06-.06Z"/>
                <path class="cls-11" d="M40.99,57.68c-.15-.13-.31-.26-.49-.36-.09-.05-.22.06-.13.13.15.12.29.25.42.38.1.09.3.32.46.3.02,0,.04-.02.05-.04.04-.15-.21-.33-.31-.42Z"/>
                <path class="cls-11" d="M42.76,57.15c-.19-.15-.4-.27-.62-.37-.1-.04-.17.1-.08.15.2.11.37.24.55.38.12.1.27.32.45.33.04,0,.07-.02.08-.06.02-.17-.24-.33-.37-.43Z"/>
                <path class="cls-11" d="M42.08,59.38c-.19-.13-.41-.24-.62-.34-.1-.05-.21.08-.1.14.19.11.35.23.53.35.14.09.32.29.5.26.02,0,.05-.02.05-.05,0-.17-.22-.27-.36-.36Z"/>
                <path class="cls-11" d="M43.68,59.2c-.16-.11-.33-.26-.53-.28-.06,0-.1.06-.06.11.05.04.07.1.13.13.11.08.22.15.33.23.07.05.45.36.54.23.09-.13-.32-.36-.41-.41Z"/>
                <path class="cls-11" d="M42.66,61.27c-.2-.14-.42-.28-.67-.31-.05,0-.07.06-.03.08.21.11.41.23.6.37.12.09.3.31.47.28.02,0,.03-.01.03-.03.01-.16-.27-.31-.4-.39Z"/>
                <path class="cls-11" d="M44.3,61.32c-.19-.13-.38-.25-.62-.31-.15-.04-.22.16-.07.2.23.07.41.2.59.33.04.03.33.25.37.13.05-.12-.19-.28-.28-.35Z"/>
                <path class="cls-11" d="M46.2,59.97c-.13-.09-.26-.18-.4-.26-.13-.08-.25-.19-.41-.19-.08,0-.11.06-.09.12.05.12.17.18.28.25.13.09.27.17.4.26.07.05.46.44.57.29.12-.17-.23-.38-.35-.47Z"/>
                <path class="cls-11" d="M46.38,61.49c-.17-.12-.36-.27-.57-.33-.08-.02-.16.07-.1.13.15.13.33.22.49.34.13.1.31.3.49.26.03,0,.05-.03.05-.06-.01-.15-.25-.26-.37-.34Z"/>
                <path class="cls-11" d="M45.31,63.9c-.05-.18-.31-.29-.47-.4-.17-.12-.39-.24-.61-.24-.04,0-.08.05-.04.08.16.13.35.23.52.34.15.1.36.29.56.27.03,0,.05-.03.04-.06Z"/>
                <path class="cls-11" d="M46.5,63.32c-.18-.11-.36-.23-.56-.32-.12-.06-.24.1-.12.16.2.09.38.21.56.32.12.07.33.26.48.18.02,0,.02-.02.02-.04-.02-.14-.27-.23-.39-.3Z"/>
                <path class="cls-11" d="M49.12,62.01c-.28-.22-.67-.39-1.01-.51-.17-.06-.26.18-.09.24.17.06.33.14.49.22.16.08.31.18.48.23.06.01.1,0,.14-.04,0,0,.01-.02.01-.02.01-.03,0-.08-.02-.11Z"/>
                <path class="cls-11" d="M47.91,65.56c-.06-.15-.37-.24-.52-.32-.21-.11-.41-.23-.64-.32-.13-.05-.19.13-.07.18.24.11.46.25.69.39.14.08.37.21.53.11.02,0,.02-.03,0-.05Z"/>
                <path class="cls-11" d="M49.77,64.22c-.11-.13-.29-.18-.45-.23-.19-.07-.39-.11-.58-.18-.09-.03-.15.09-.07.13.17.09.32.19.5.26.16.07.33.17.51.18.1,0,.15-.1.09-.16Z"/>
                <path class="cls-11" d="M50.42,65.83c-.07-.13-.26-.17-.4-.22-.19-.08-.38-.14-.58-.17-.13-.02-.17.17-.05.21.19.05.36.13.54.21.14.06.29.16.45.1.05-.02.07-.07.04-.11Z"/>
                <path class="cls-11" d="M52.24,63.82c-.09-.16-.35-.23-.52-.31-.21-.1-.42-.19-.65-.26-.18-.05-.27.19-.09.25.25.07.48.18.71.29.16.08.33.19.51.13.04-.01.05-.06.04-.1Z"/>
                <path class="cls-11" d="M50.7,67.64c-.12-.19-.4-.32-.59-.44-.2-.13-.45-.27-.7-.22-.06.01-.08.09-.02.12.22.12.43.21.63.36.17.12.37.32.6.32.07,0,.13-.06.09-.12Z"/>
                <path class="cls-11" d="M52.94,65.99c-.07-.19-.34-.29-.52-.38-.24-.13-.5-.23-.76-.31-.16-.05-.24.17-.08.22.27.09.52.21.76.34.17.09.34.24.55.23.06,0,.07-.06.05-.1Z"/>
                <path class="cls-11" d="M53.49,67.91c-.1-.17-.34-.24-.53-.32-.23-.1-.53-.27-.78-.28-.07,0-.12.07-.07.12.16.16.45.23.66.33.19.09.42.25.64.25.06,0,.11-.05.08-.1Z"/>
              </g>
            </g>
            <g>
              <path class="cls-11" d="M81.12,52.06c-.05-.24-.12-.49-.3-.68-.08-.08-.22-.01-.2.09.03.22.11.43.15.65.03.18.03.43.2.55.04.03.09,0,.12-.02.14-.14.07-.42.04-.59Z"/>
              <path class="cls-11" d="M82.29,52.24s-.15-.03-.15.04c0,.16.03.32.08.48.05.18.06.36.12.54.03.1.19.16.26.05.22-.35.01-.85-.31-1.11Z"/>
              <path class="cls-11" d="M81.38,53.79s-.06,0-.07.02c-.09.16,0,.4-.03.58-.02.17-.16.49-.02.64,0,.01.03.02.04.01.23-.07.28-.44.3-.63.02-.19.03-.57-.23-.62Z"/>
              <path class="cls-11" d="M79.95,54.49s-.13-.04-.15.03c-.05.22,0,.45-.03.67-.03.2-.25.42-.19.62,0,.02.03.04.06.04.28.03.41-.33.45-.52.06-.26.08-.63-.14-.84Z"/>
              <path class="cls-11" d="M82.52,55.41c-.05-.1-.21-.06-.23.04-.03.21-.04.43-.08.65-.04.18-.18.39-.13.57,0,.02.02.04.05.04.26,0,.39-.29.45-.48.09-.28.07-.55-.06-.82Z"/>
              <path class="cls-11" d="M80.8,57.02c-.04-.14-.26-.1-.24.04.04.22.01.43-.05.64-.05.16-.2.35-.15.52,0,.02.03.04.06.04.22-.04.31-.3.37-.47.09-.25.1-.52.02-.77Z"/>
              <path class="cls-11" d="M79.03,58.03c-.04-.11-.23-.12-.24.01-.02.23-.11.43-.23.63-.09.15-.22.31-.24.48,0,.04.04.06.07.04.22-.08.38-.31.5-.48.14-.21.21-.45.13-.69Z"/>
              <path class="cls-11" d="M81.5,58.96s-.02-.01-.03,0c-.18.07-.19.3-.23.45-.07.23-.17.46-.19.7,0,.03.03.03.05.02.21-.13.31-.36.38-.57.06-.16.17-.44.03-.59Z"/>
              <path class="cls-11" d="M79.67,59.78c-.04-.13-.27-.13-.27.01,0,.22-.15.44-.24.64-.04.08-.22.37-.03.41.19.04.38-.29.45-.41.13-.22.16-.41.09-.65Z"/>
              <path class="cls-11" d="M77.15,60.78c-.07.2-.17.41-.28.6-.1.17-.26.33-.31.52-.02.07.06.16.14.11.21-.11.36-.34.47-.54.12-.21.19-.41.19-.65,0-.1-.16-.14-.2-.04Z"/>
              <path class="cls-11" d="M79.96,61.87c-.03-.08-.13-.11-.19-.04-.06.08-.08.17-.11.26-.04.12-.1.23-.17.33-.1.16-.29.32-.28.52,0,.03.02.04.05.04.25-.02.41-.29.51-.47.1-.18.25-.44.18-.64Z"/>
              <path class="cls-11" d="M77.43,62.53c-.04-.05-.13-.02-.14.04-.02.24-.09.39-.23.59-.1.15-.36.31-.37.5,0,.02.02.05.05.05.25,0,.48-.36.59-.52.12-.18.26-.46.11-.65Z"/>
              <path class="cls-11" d="M75.25,63.56c-.15.15-.34.28-.51.41-.15.11-.35.26-.36.46,0,.1.13.18.22.1.16-.14.3-.28.46-.41.17-.13.31-.28.33-.49,0-.06-.09-.12-.15-.07Z"/>
              <path class="cls-11" d="M76.87,64.78s-.04-.02-.06,0c-.05.04-.07.1-.1.15-.05.12-.11.22-.18.33-.12.18-.33.33-.43.52-.04.08.07.14.14.11.24-.08.4-.37.52-.56.08-.14.26-.41.11-.56Z"/>
              <path class="cls-11" d="M75.32,65.01c-.12.2-.27.37-.43.54-.11.13-.35.31-.31.49,0,.02.02.03.04.03.2,0,.35-.21.46-.34.17-.2.3-.42.39-.66.03-.08-.11-.15-.16-.07Z"/>
            </g>
          </g>
          <g>
            <path class="cls-11" d="M71.05,49.88c.28-.16.55-.36.7-.65.06-.13-.08-.24-.19-.18-.25.14-.48.32-.73.46-.21.12-.51.23-.59.48-.02.06.03.1.08.12.24.08.54-.11.74-.23Z"/>
            <path class="cls-11" d="M71.33,51.25c.03-.07-.03-.18-.12-.14-.2.08-.38.18-.55.31-.19.14-.42.23-.61.38-.11.08-.11.29.05.31.53.07,1.04-.38,1.22-.85Z"/>
            <path class="cls-11" d="M69.04,50.98s-.02-.06-.06-.07c-.24-.02-.49.18-.72.23-.22.06-.67.05-.79.28,0,.02,0,.04,0,.06.18.22.66.1.9.04.24-.06.71-.23.66-.54Z"/>
            <path class="cls-11" d="M67.56,49.73c.03-.06-.01-.16-.1-.15-.29.04-.55.22-.83.28-.25.06-.63-.07-.84.08-.03.02-.04.05-.03.08.09.31.58.29.83.25.34-.06.81-.2.97-.54Z"/>
            <path class="cls-11" d="M67.56,52.97c.1-.1-.02-.26-.15-.23-.27.07-.55.16-.83.22-.24.04-.55-.02-.76.12-.02.01-.04.04-.03.07.12.29.52.29.78.27.38-.03.71-.19.97-.45Z"/>
            <path class="cls-11" d="M64.83,51.84c.15-.11.01-.34-.15-.25-.25.14-.53.21-.81.24-.22.02-.52-.05-.7.07-.03.02-.04.05-.02.08.14.22.51.2.74.19.34-.01.67-.13.95-.33Z"/>
            <path class="cls-11" d="M62.83,50.37c.12-.1.05-.31-.12-.26-.29.09-.58.08-.87.04-.22-.03-.48-.1-.69-.04-.05.01-.05.07-.02.1.19.21.54.28.81.32.31.05.65.02.9-.18Z"/>
            <path class="cls-11" d="M62.76,53.51s0-.03,0-.04c-.17-.16-.45-.07-.65-.05-.31.03-.64.03-.94.11-.03,0-.03.05,0,.06.25.17.57.17.87.16.23,0,.62-.02.74-.25Z"/>
            <path class="cls-11" d="M60.97,51.89c.14-.1.05-.36-.13-.29-.27.1-.6.04-.89.03-.12,0-.55-.07-.51.16.03.23.52.28.7.3.33.04.57-.01.83-.21Z"/>
            <path class="cls-11" d="M58.64,49.59c-.28.02-.58,0-.85-.03-.25-.04-.52-.13-.77-.1-.09.01-.17.14-.08.21.23.18.57.23.86.26.32.04.59.02.88-.1.12-.05.1-.25-.04-.24Z"/>
            <path class="cls-11" d="M58.53,53.17c.08-.06.07-.2-.04-.22-.12-.03-.24,0-.36,0-.16,0-.32,0-.48-.03-.24-.03-.52-.16-.75-.07-.03.01-.04.04-.03.07.13.27.53.31.8.35.26.03.65.07.87-.1Z"/>
            <path class="cls-11" d="M56.63,50.71c.05-.07-.04-.15-.11-.13-.3.08-.52.09-.83.02-.22-.05-.54-.25-.77-.18-.03,0-.05.04-.04.07.11.27.65.36.9.4.27.05.68.08.85-.19Z"/>
            <path class="cls-11" d="M54.4,48.8c-.25-.1-.49-.24-.72-.37-.21-.12-.47-.27-.72-.18-.12.05-.16.23-.03.29.23.11.47.2.7.32.24.12.48.21.75.13.08-.02.11-.16.02-.19Z"/>
            <path class="cls-11" d="M53.62,51.14s0-.06-.02-.07c-.07-.04-.15-.04-.23-.04-.16,0-.32-.01-.48-.04-.28-.05-.55-.21-.83-.22-.12,0-.14.14-.08.21.2.23.63.27.91.31.2.03.62.09.73-.14Z"/>
            <path class="cls-11" d="M52.67,49.55c-.29-.04-.57-.13-.85-.22-.21-.06-.53-.24-.74-.11-.02.01-.03.04-.02.06.08.22.41.29.61.35.32.1.65.14.98.12.12,0,.14-.19.02-.21Z"/>
          </g>
        </g>
        <path class="cls-5" d="M21.49,46.18c-.47-.08-.92-.01-1.39,0,0-.59-.26-1.63-1.04-1.5-.45.08-.76.44-1,.81-.07.11-.5,1.12-.57,1.12-.68.06-1.36.08-2.03.12-.48.03-.56.65-.25.92.38.33.8.56,1.25.75-.1.18-.19.36-.26.55-.2.47-.74,1.94.05,2.15.41.11.85-.13,1.19-.33.08-.05.95-.65.99-.62.26.23.58.42.8.54.59.32,1.53.84,2.22.62.86-.28.19-1.85.02-2.37-.1-.31-.39-1.03-.41-1.07.27-.29.52-.59.77-.89.25-.31.03-.74-.33-.81Z"/>
        <path class="cls-5" d="M74.03,59.75c-.47-.08-.92-.01-1.39,0,0-.59-.26-1.63-1.04-1.5-.45.08-.76.44-1,.81-.07.11-.5,1.12-.57,1.12-.68.06-1.36.08-2.03.12-.48.03-.56.65-.25.92.38.33.8.56,1.25.75-.1.18-.19.36-.26.55-.2.47-.74,1.94.05,2.15.41.11.85-.13,1.19-.33.08-.05.95-.65.99-.62.26.23.58.42.8.54.59.32,1.53.84,2.22.62.86-.28.19-1.85.02-2.37-.1-.31-.39-1.03-.41-1.07.27-.29.52-.59.77-.89.25-.31.03-.74-.33-.81Z"/>
        <path class="cls-5" d="M62.56,20.91c-.15-.61-.64-1.06-1.15-1.36-.38-.22-.87-.4-1.29-.36-.37-.13-.81-.03-1.16.13-.07.03-.14.07-.21.11-.25-.25-.55-.47-.85-.64-.52-.3-1.2-.54-1.79-.46-.32-.11-.68-.08-1.03,0-.29-1.21-1.22-2.08-2.21-2.64-.76-.43-1.74-.77-2.61-.63-.62-.2-1.34-.05-1.98.21-.41-.5-.94-.9-1.48-1.21-.76-.43-1.74-.77-2.61-.63-.75-.24-1.65.03-2.38.39-1.06.53-1.97,1.51-2.51,2.62-.09.18-.16.36-.22.55-.45-.12-.92-.18-1.36-.11-.75-.24-1.65.03-2.38.39-.43.22-.84.51-1.21.86-.5-.22-1.06-.35-1.57-.27-.58-.19-1.28.02-1.84.3-.53.27-1.01.68-1.4,1.17-.28-.11-.59-.18-.86-.15-.37-.13-.81-.03-1.16.13-.51.23-.93.67-1.18,1.18-.26.55-.24,1.25.17,1.79.61.81,1.65,1.1,2.54,1.04.08,0,.15-.01.22-.02.93,1.14,2.47,1.5,3.82,1.33.29-.04.57-.1.84-.18,1.2,1.05,2.9,1.36,4.42,1.17,1.18-.15,2.3-.6,3.18-1.47,1.17,1.65,3.28,2.16,5.11,1.93,1.3-.16,2.52-.69,3.43-1.73.14-.16.28-.34.4-.52.15,0,.3-.02.44-.04.87-.11,1.7-.38,2.42-.86.83,1.03,2.21,1.37,3.41,1.25.88-.09,1.71-.43,2.32-1.11.01-.02.03-.03.04-.05.51.25,1.09.33,1.62.29.63-.05,1.22-.27,1.65-.74.39-.43.58-1.05.43-1.68Z"/>
      </g>
      <text class="cls-12" transform="translate(12.24 123.65)"><tspan x="0" y="0">Lazyslide</tspan></text>
    </g>
  </g>
</svg>